<svg width="48" height="48" viewBox="0 0 48 48" fill="none" xmlns="http://www.w3.org/2000/svg">
<rect width="48" height="48" rx="24" fill="#00D95F"/>
<path d="M11.9995 35.1112L13.7215 28.7086C12.3328 26.2144 11.8915 23.304 12.4788 20.5113C13.0661 17.7186 14.6424 15.231 16.9185 13.505C19.1947 11.7789 22.0179 10.9302 24.8703 11.1146C27.7226 11.299 30.4126 12.5041 32.4468 14.5088C34.481 16.5135 35.7228 19.1833 35.9444 22.0283C36.166 24.8732 35.3525 27.7026 33.6532 29.9971C31.9539 32.2916 29.4827 33.8974 26.6933 34.5197C23.9038 35.1421 20.983 34.7393 18.467 33.3853L11.9995 35.1112ZM18.7788 30.9894L19.1788 31.2263C21.0012 32.3047 23.1298 32.751 25.2328 32.4955C27.3358 32.2401 29.295 31.2974 30.8053 29.8142C32.3156 28.331 33.292 26.3907 33.5824 24.2957C33.8727 22.2007 33.4608 20.0686 32.4107 18.2317C31.3606 16.3948 29.7314 14.9563 27.7769 14.1404C25.8224 13.3245 23.6524 13.1769 21.6051 13.7207C19.5579 14.2645 17.7483 15.4692 16.4584 17.147C15.1685 18.8247 14.4708 20.8813 14.474 22.9963C14.4722 24.75 14.958 26.4697 15.8773 27.9641L16.1281 28.3769L15.1655 31.9505L18.7788 30.9894Z" fill="white"/>
<path fill-rule="evenodd" clip-rule="evenodd" d="M28.4873 24.6404C28.2529 24.4516 27.9783 24.3187 27.6846 24.2519C27.3909 24.185 27.0858 24.186 26.7925 24.2547C26.3519 24.4374 26.0671 25.1277 25.7824 25.4729C25.7224 25.5557 25.6341 25.6137 25.5343 25.6361C25.4344 25.6586 25.3298 25.6438 25.2401 25.5947C23.6268 24.9639 22.2746 23.8071 21.403 22.3122C21.3286 22.2189 21.2934 22.1005 21.3048 21.9818C21.3162 21.8632 21.3733 21.7535 21.464 21.676C21.7815 21.3622 22.0147 20.9734 22.1419 20.5458C22.1701 20.074 22.0619 19.6041 21.8301 19.1921C21.6508 18.6145 21.3097 18.1002 20.8471 17.7099C20.6084 17.6028 20.3438 17.5669 20.0852 17.6065C19.8266 17.6461 19.585 17.7596 19.3895 17.9333C19.0502 18.2256 18.7808 18.5901 18.6013 19.0001C18.4218 19.41 18.3367 19.855 18.3523 20.3021C18.3533 20.5532 18.3852 20.8032 18.4472 21.0466C18.6046 21.6313 18.8467 22.1899 19.1658 22.7048C19.396 23.0992 19.6472 23.481 19.9183 23.8486C20.7993 25.056 21.9067 26.0811 23.1791 26.8671C23.8176 27.2666 24.5001 27.5913 25.2129 27.835C25.9534 28.1701 26.7711 28.2987 27.5789 28.2072C28.0392 28.1377 28.4753 27.9562 28.8489 27.6789C29.2224 27.4015 29.522 27.0368 29.7212 26.6167C29.8382 26.363 29.8737 26.0793 29.8229 25.8046C29.7008 25.2428 28.9483 24.9112 28.4873 24.6404Z" fill="white"/>
</svg>
